<svg width="45" height="55" viewBox="0 0 45 55" fill="none" xmlns="http://www.w3.org/2000/svg">
<path fill-rule="evenodd" clip-rule="evenodd" d="M17.3337 1.34019e-06H27.6668C31.1053 -4.98226e-05 33.8768 -0.000100861 36.0564 0.298076C38.3195 0.607662 40.225 1.26994 41.7383 2.80973C43.2519 4.34953 43.9026 6.28827 44.2071 8.59087C44.5 10.8087 44.5 13.6286 44.5 17.1271V37.873C44.5 41.3715 44.5 44.1913 44.2071 46.4093C43.9026 48.7118 43.2519 50.6504 41.7383 52.1904C40.225 53.7301 38.3195 54.3924 36.0564 54.702C33.8768 55 31.105 55 27.6668 55H17.3338C13.8953 55 11.1237 55 8.94398 54.702C6.68087 54.3924 4.77537 53.7301 3.26201 52.1904C1.74863 50.6504 1.09771 48.7118 0.793436 46.4093C0.696134 45.6728 0.63114 44.8703 0.587744 43.9985C0.489487 43.6828 0.470354 43.338 0.547642 42.9941C0.500399 41.48 0.500424 39.7768 0.500475 37.873V17.1271C0.500424 13.6286 0.500374 10.8087 0.793436 8.59087C1.09771 6.28827 1.74863 4.34953 3.26201 2.80973C4.77537 1.26994 6.68087 0.607662 8.94395 0.298076C11.1237 -0.000100861 13.8953 -4.98226e-05 17.3337 1.34019e-06ZM4.33912 43.4861C4.37733 44.3911 4.43725 45.187 4.53118 45.8979C4.77924 47.775 5.23291 48.7689 5.92878 49.477C6.62463 50.1851 7.60159 50.6466 9.4465 50.899C11.3456 51.1587 13.8627 51.1628 17.4717 51.1628H27.5288C31.1377 51.1628 33.6548 51.1587 35.554 50.899C37.3987 50.6466 38.3758 50.1851 39.0717 49.477C39.7674 48.7689 40.2212 47.775 40.4691 45.8979C40.6776 44.3213 40.7186 42.3265 40.7266 39.6512H26.9002V46.7651C26.9002 46.7873 26.9002 46.8101 26.9002 46.8339C26.9007 47.1186 26.9012 47.5241 26.8477 47.8725C26.7823 48.2982 26.5671 49.1199 25.7308 49.6197C24.9253 50.1009 24.1373 49.9221 23.7629 49.8037C23.4366 49.7003 23.0785 49.5269 22.8115 49.3977C22.7904 49.3874 22.7698 49.3775 22.7499 49.3677L19.986 48.0319L17.222 49.3677C17.2021 49.3775 17.1815 49.3872 17.1604 49.3977C16.8935 49.5269 16.5355 49.7003 16.209 49.8037C15.8345 49.9221 15.0467 50.1009 14.2412 49.6197C13.4047 49.1199 13.1896 48.2982 13.1242 47.8725C13.0707 47.5241 13.0713 47.1186 13.0717 46.8339C13.0717 46.8101 13.0718 46.7873 13.0718 46.7651V39.6512H12.1862C9.72659 39.6512 8.86669 39.6675 8.20775 39.8474C6.3992 40.3403 4.95742 41.7082 4.33912 43.4861ZM16.8431 39.6512V45.3026L18.7271 44.3922C18.7316 44.3899 18.7392 44.386 18.7492 44.3809C18.8724 44.3167 19.3916 44.0466 19.986 44.0466C20.5801 44.0466 21.0993 44.3167 21.2228 44.3809C21.2328 44.386 21.2401 44.3899 21.2449 44.3922L23.1288 45.3026V39.6512H16.8431ZM12.1862 35.814C12.0877 35.814 11.9907 35.814 11.895 35.814C9.83845 35.8132 8.43512 35.8127 7.23164 36.1409C6.15559 36.4343 5.15746 36.9134 4.27186 37.543V17.2674C4.27186 13.5954 4.27586 11.0345 4.53118 9.10217C4.77924 7.22508 5.23291 6.23104 5.92878 5.52305C6.62463 4.81506 7.60159 4.35344 9.4465 4.10108C11.3456 3.84128 13.8627 3.83721 17.4717 3.83721H27.5288C31.1377 3.83721 33.6548 3.84128 35.554 4.10108C37.3987 4.35344 38.3758 4.81506 39.0717 5.52305C39.7674 6.23104 40.2212 7.22508 40.4691 9.10217C40.7246 11.0345 40.7286 13.5954 40.7286 17.2674V35.814H12.1862ZM10.5575 14.7093C10.5575 13.6497 11.4017 12.7907 12.4432 12.7907H32.5573C33.5987 12.7907 34.443 13.6497 34.443 14.7093C34.443 15.7689 33.5987 16.6279 32.5573 16.6279H12.4432C11.4017 16.6279 10.5575 15.7689 10.5575 14.7093ZM10.5575 23.6628C10.5575 22.6032 11.4017 21.7442 12.4432 21.7442H25.0145C26.0559 21.7442 26.9002 22.6032 26.9002 23.6628C26.9002 24.7224 26.0559 25.5814 25.0145 25.5814H12.4432C11.4017 25.5814 10.5575 24.7224 10.5575 23.6628Z" fill="#CB2A20" fill-opacity="0.6"/>
</svg>
