<svg width="17" height="19" viewBox="0 0 17 19" fill="none" xmlns="http://www.w3.org/2000/svg">
<path d="M8.33333 1H3.93333C2.90657 1 2.39319 1 2.00102 1.19982C1.65605 1.37559 1.37559 1.65605 1.19982 2.00102C1 2.39319 1 2.90657 1 3.93333V14.5667C1 15.5934 1 16.1069 1.19982 16.499C1.37559 16.8439 1.65605 17.1244 2.00102 17.3002C2.39319 17.5 2.90657 17.5 3.93333 17.5H7.41667M8.33333 1L13.8333 6.5M8.33333 1V5.03333C8.33333 5.54671 8.33333 5.80341 8.43325 5.99949C8.52116 6.17197 8.66132 6.3122 8.83383 6.40009C9.02991 6.5 9.28657 6.5 9.8 6.5H13.8333M13.8333 6.5V8.33333M4.66667 13.8333H6.5M4.66667 10.1667H8.33333M4.66667 6.5H5.58333M14.0795 15.9129L15.6667 17.5M14.75 14.2917C14.75 15.5573 13.724 16.5833 12.4583 16.5833C11.1927 16.5833 10.1667 15.5573 10.1667 14.2917C10.1667 13.026 11.1927 12 12.4583 12C13.724 12 14.75 13.026 14.75 14.2917Z" stroke="#1E2A5E" stroke-width="1.5" stroke-linecap="round" stroke-linejoin="round"/>
</svg>
