<svg width="28" height="26" viewBox="0 0 28 26" fill="none" xmlns="http://www.w3.org/2000/svg">
<path d="M21.4358 13.1917C21.4429 17.2918 20.6583 21.3534 19.1266 25.1454C19.026 25.3942 18.8325 25.5921 18.5886 25.6957C18.3446 25.7992 18.0703 25.7999 17.8259 25.6976C17.5814 25.5953 17.3869 25.3984 17.2851 25.1501C17.1832 24.9018 17.1824 24.6225 17.2828 24.3736C18.7155 20.8264 19.4492 17.0271 19.4424 13.1917C19.4424 12.9226 19.5474 12.6645 19.7343 12.4742C19.9212 12.2839 20.1747 12.177 20.4391 12.177C20.7034 12.177 20.957 12.2839 21.1439 12.4742C21.3308 12.6645 21.4358 12.9226 21.4358 13.1917ZM14.4587 8.11799C15.1598 8.11849 15.8529 8.26935 16.4929 8.56075C17.133 8.85214 17.7055 9.27752 18.1733 9.80919C18.2606 9.90863 18.3662 9.98959 18.4843 10.0474C18.6023 10.1053 18.7303 10.1389 18.8611 10.1463C18.9919 10.1537 19.1228 10.1348 19.2464 10.0907C19.37 10.0466 19.4839 9.97813 19.5815 9.8892C19.679 9.80026 19.7585 9.69261 19.8152 9.57241C19.8719 9.45221 19.9047 9.32181 19.9119 9.18866C19.9191 9.05552 19.9004 8.92224 19.857 8.79644C19.8135 8.67065 19.7461 8.5548 19.6587 8.45553C18.7166 7.38347 17.4769 6.62787 16.1038 6.28873C14.7306 5.94958 13.2887 6.04287 11.9687 6.55625C10.6488 7.06962 9.51307 7.97889 8.71181 9.16375C7.91055 10.3486 7.48153 11.7532 7.4815 13.1917C7.48215 16.1134 6.75438 18.9874 5.36636 21.5446C5.30277 21.6611 5.26237 21.7893 5.24746 21.9217C5.23254 22.0542 5.24341 22.1883 5.27944 22.3165C5.31546 22.4446 5.37595 22.5643 5.45742 22.6687C5.5389 22.773 5.63978 22.86 5.7543 22.9247C5.86881 22.9894 5.99472 23.0304 6.12482 23.0455C6.25493 23.0606 6.38668 23.0494 6.51255 23.0127C6.63842 22.9759 6.75594 22.9143 6.8584 22.8313C6.96086 22.7482 7.04624 22.6455 7.10967 22.5288C8.66155 19.6704 9.47539 16.4577 9.47498 13.1917C9.47649 11.8466 10.002 10.5569 10.9363 9.60575C11.8706 8.65458 13.1374 8.11953 14.4587 8.11799ZM7.14947 4.87147C7.247 4.7826 7.32638 4.67505 7.38308 4.55495C7.43978 4.43485 7.4727 4.30455 7.47994 4.1715C7.48718 4.03845 7.46861 3.90526 7.42529 3.77951C7.38197 3.65377 7.31474 3.53795 7.22745 3.43865C7.14016 3.33936 7.03452 3.25854 6.91655 3.20082C6.79858 3.14309 6.6706 3.10958 6.53992 3.10221C6.40923 3.09484 6.27839 3.11374 6.15488 3.15785C6.03137 3.20195 5.9176 3.27039 5.82007 3.35925C4.46223 4.59743 3.37585 6.11294 2.63169 7.80707C1.88753 9.50119 1.5023 11.3359 1.50108 13.1917C1.50489 14.7969 1.16583 16.3837 0.507388 17.8422C0.452688 17.9633 0.421968 18.0942 0.416982 18.2274C0.411997 18.3607 0.432844 18.4936 0.478332 18.6186C0.52382 18.7436 0.593058 18.8582 0.682088 18.956C0.771119 19.0537 0.878198 19.1327 0.997206 19.1883C1.11621 19.2439 1.24482 19.2751 1.37567 19.2801C1.50652 19.2851 1.63706 19.2638 1.75982 19.2174C1.88258 19.171 1.99515 19.1004 2.09112 19.0097C2.18708 18.919 2.26454 18.8099 2.31908 18.6887C3.09775 16.9648 3.49885 15.0892 3.49456 13.1917C3.49564 11.6213 3.82167 10.0688 4.4514 8.63521C5.08114 7.20165 6.00046 5.91922 7.14947 4.87147ZM14.4587 8.76528e-06C12.9874 -0.0017198 11.5267 0.252228 10.1394 0.750912C9.8904 0.840767 9.68659 1.0276 9.57281 1.27037C9.45902 1.51313 9.44456 1.79195 9.53261 2.04556C9.62065 2.29917 9.804 2.50682 10.0424 2.62287C10.2807 2.73892 10.5546 2.75388 10.8038 2.66446C12.4578 2.0711 14.2274 1.89 15.9643 2.13634C17.7012 2.38268 19.3549 3.04929 20.7866 4.0803C22.2184 5.1113 23.3865 6.47667 24.1931 8.06198C24.9998 9.64729 25.4215 11.4063 25.4228 13.1917C25.4237 15.8474 25.1338 18.4948 24.5583 21.085C24.5292 21.215 24.5256 21.3495 24.5476 21.481C24.5697 21.6124 24.6169 21.7381 24.6867 21.8509C24.7565 21.9637 24.8474 22.0614 24.9543 22.1385C25.0612 22.2155 25.1819 22.2703 25.3096 22.2998C25.4373 22.3294 25.5695 22.333 25.6985 22.3104C25.8276 22.2879 25.9511 22.2397 26.0618 22.1686C26.1726 22.0975 26.2685 22.0049 26.3441 21.896C26.4197 21.7872 26.4735 21.6642 26.5024 21.5342C27.1107 18.7966 27.4172 15.9985 27.4163 13.1917C27.4124 9.69428 26.0459 6.34121 23.6168 3.86814C21.1876 1.39507 17.894 0.00396592 14.4587 8.76528e-06ZM12.7039 22.417C12.4637 22.3048 12.1895 22.2943 11.9416 22.3879C11.6938 22.4815 11.4926 22.6714 11.3823 22.9159C11.1422 23.4483 10.8785 23.979 10.5985 24.4933C10.535 24.6098 10.4947 24.738 10.4799 24.8704C10.4651 25.0027 10.476 25.1368 10.5121 25.2649C10.5481 25.393 10.6086 25.5126 10.6901 25.6169C10.7716 25.7212 10.8724 25.8081 10.9869 25.8727C11.1013 25.9373 11.2272 25.9784 11.3572 25.9935C11.4873 26.0086 11.619 25.9974 11.7448 25.9607C11.8706 25.924 11.9881 25.8624 12.0905 25.7795C12.193 25.6965 12.2784 25.5939 12.3418 25.4773C12.6462 24.9184 12.933 24.3414 13.194 23.7625C13.2486 23.6414 13.2793 23.5105 13.2842 23.3773C13.2891 23.2442 13.2682 23.1113 13.2227 22.9864C13.1772 22.8614 13.108 22.7468 13.0189 22.6491C12.9299 22.5515 12.8229 22.4726 12.7039 22.417ZM14.4572 12.1769C14.1929 12.1769 13.9393 12.2838 13.7524 12.4741C13.5655 12.6644 13.4605 12.9225 13.4605 13.1916C13.4615 15.16 13.2188 17.1206 12.7382 19.0271C12.7056 19.1562 12.6983 19.2905 12.7166 19.4225C12.735 19.5544 12.7787 19.6814 12.8453 19.7961C12.9118 19.9109 12.9999 20.0111 13.1046 20.0912C13.2092 20.1713 13.3283 20.2296 13.4551 20.2628C13.5818 20.296 13.7138 20.3035 13.8434 20.2848C13.973 20.2661 14.0977 20.2216 14.2104 20.1538C14.3231 20.0861 14.4216 19.9964 14.5002 19.8899C14.5789 19.7833 14.6362 19.6621 14.6688 19.533C15.1911 17.4612 15.4549 15.3306 15.4539 13.1916C15.4539 12.9225 15.3489 12.6644 15.162 12.4741C14.9751 12.2838 14.7215 12.1769 14.4572 12.1769Z" fill="#484C52"/>
</svg>
