<svg width="28" height="36" viewBox="0 0 28 36" fill="none" xmlns="http://www.w3.org/2000/svg">
<path fill-rule="evenodd" clip-rule="evenodd" d="M10.48 8.64124e-07H16.913C19.0537 -3.21245e-05 20.7791 -6.50346e-05 22.136 0.192193C23.5449 0.391807 24.7312 0.818828 25.6734 1.81165C26.6157 2.80448 27.0208 4.05454 27.2103 5.53921C27.3927 6.96921 27.3927 8.78742 27.3927 11.0432V24.4197C27.3927 26.6754 27.3927 28.4936 27.2103 29.9237C27.0208 31.4083 26.6157 32.6583 25.6734 33.6512C24.7312 34.644 23.5449 35.071 22.136 35.2706C20.7791 35.4628 19.0535 35.4628 16.913 35.4628H10.48C8.33937 35.4628 6.61392 35.4628 5.25689 35.2706C3.84797 35.071 2.66167 34.644 1.71952 33.6512C0.777346 32.6583 0.372111 31.4083 0.182682 29.9237C0.122105 29.4488 0.0816429 28.9314 0.0546262 28.3692C-0.00654487 28.1657 -0.0184566 27.9434 0.0296601 27.7217C0.000248493 26.7454 0.000264198 25.6472 0.000295504 24.4197V11.0432C0.000264198 8.78742 0.00023279 6.96921 0.182682 5.53921C0.372111 4.05454 0.777346 2.80448 1.71952 1.81165C2.66167 0.818828 3.84797 0.391807 5.25687 0.192193C6.61392 -6.50346e-05 8.33936 -3.21245e-05 10.48 8.64124e-07ZM2.39008 28.0389C2.41388 28.6224 2.45118 29.1356 2.50965 29.5939C2.66409 30.8043 2.94652 31.4451 3.37975 31.9017C3.81295 32.3582 4.42117 32.6558 5.56974 32.8186C6.75207 32.986 8.31909 32.9886 10.5659 32.9886H16.827C19.0738 32.9886 20.6408 32.986 21.8233 32.8186C22.9717 32.6558 23.58 32.3582 24.0132 31.9017C24.4463 31.4451 24.7289 30.8043 24.8832 29.5939C25.013 28.5774 25.0385 27.2912 25.0435 25.5662H16.4357V30.1531C16.4357 30.1675 16.4357 30.1821 16.4357 30.1975C16.436 30.3811 16.4364 30.6425 16.403 30.8671C16.3623 31.1416 16.2283 31.6714 15.7077 31.9937C15.2062 32.304 14.7156 32.1887 14.4826 32.1123C14.2794 32.0457 14.0565 31.9338 13.8903 31.8505C13.8771 31.8439 13.8643 31.8375 13.8519 31.8312L12.1312 30.9699L10.4105 31.8312C10.398 31.8375 10.3853 31.8438 10.3721 31.8505C10.2059 31.9338 9.98306 32.0457 9.77979 32.1123C9.54667 32.1887 9.05618 32.304 8.55471 31.9937C8.03399 31.6714 7.90003 31.1416 7.85932 30.8671C7.82601 30.6425 7.82639 30.3811 7.82664 30.1975C7.82665 30.1821 7.82668 30.1675 7.82668 30.1531V25.5662H7.27535C5.74411 25.5662 5.20877 25.5768 4.79854 25.6927C3.67261 26.0106 2.77502 26.8925 2.39008 28.0389ZM10.1746 25.5662V29.2101L11.3475 28.6231C11.3503 28.6216 11.355 28.6191 11.3613 28.6158C11.438 28.5744 11.7612 28.4003 12.1312 28.4003C12.5011 28.4003 12.8243 28.5744 12.9012 28.6158C12.9074 28.6191 12.912 28.6216 12.9149 28.6231L14.0878 29.2101V25.5662H10.1746ZM7.27535 23.0921C7.21403 23.0921 7.15363 23.0921 7.0941 23.0921C5.81375 23.0916 4.94009 23.0912 4.19086 23.3028C3.52095 23.492 2.89955 23.801 2.34821 24.2069V11.1337C2.34821 8.76604 2.3507 7.11478 2.50965 5.86888C2.66409 4.65857 2.94652 4.01764 3.37975 3.56114C3.81295 3.10464 4.42117 2.807 5.56974 2.64429C6.75207 2.47677 8.31909 2.47415 10.5659 2.47415H16.827C19.0738 2.47415 20.6408 2.47677 21.8233 2.64429C22.9717 2.807 23.58 3.10464 24.0132 3.56114C24.4463 4.01764 24.7289 4.65857 24.8832 5.86888C25.0422 7.11478 25.0448 8.76604 25.0448 11.1337V23.0921H7.27535ZM6.2614 9.48424C6.2614 8.80102 6.78699 8.24716 7.43536 8.24716H19.9576C20.6059 8.24716 21.1316 8.80102 21.1316 9.48424C21.1316 10.1674 20.6059 10.7213 19.9576 10.7213H7.43536C6.78699 10.7213 6.2614 10.1674 6.2614 9.48424ZM6.2614 15.2572C6.2614 14.5741 6.78699 14.0202 7.43536 14.0202H15.2618C15.9101 14.0202 16.4357 14.5741 16.4357 15.2572C16.4357 15.9404 15.9101 16.4943 15.2618 16.4943H7.43536C6.78699 16.4943 6.2614 15.9404 6.2614 15.2572Z" fill="#1E2A5E"/>
</svg>
