<svg width="13" height="13" viewBox="0 0 13 13" fill="none" xmlns="http://www.w3.org/2000/svg">
<path d="M6.5 0C8.1576 0 9.74731 0.65848 10.9194 1.83058C12.0915 3.00268 12.75 4.5924 12.75 6.25C12.75 7.9076 12.0915 9.49731 10.9194 10.6694C9.74731 11.8415 8.1576 12.5 6.5 12.5C4.8424 12.5 3.25268 11.8415 2.08058 10.6694C0.90848 9.49731 0.25 7.9076 0.25 6.25C0.25 4.5924 0.90848 3.00268 2.08058 1.83058C3.25268 0.65848 4.8424 0 6.5 0ZM5.72143 7.48304L4.33304 6.09375C4.28326 6.04398 4.22417 6.00449 4.15914 5.97756C4.09411 5.95062 4.02441 5.93676 3.95402 5.93676C3.88363 5.93676 3.81393 5.95062 3.74889 5.97756C3.68386 6.00449 3.62477 6.04398 3.575 6.09375C3.47448 6.19427 3.41801 6.33061 3.41801 6.47277C3.41801 6.61493 3.47448 6.75126 3.575 6.85179L5.34286 8.61964C5.39249 8.66967 5.45153 8.70937 5.51659 8.73646C5.58164 8.76356 5.65141 8.77751 5.72187 8.77751C5.79234 8.77751 5.86211 8.76356 5.92716 8.73646C5.99222 8.70937 6.05126 8.66967 6.10089 8.61964L9.76161 4.95804C9.81205 4.90847 9.85217 4.84941 9.87967 4.78425C9.90717 4.7191 9.92149 4.64915 9.92182 4.57843C9.92215 4.50772 9.90848 4.43764 9.88159 4.37223C9.85469 4.30683 9.81512 4.24739 9.76515 4.19736C9.71517 4.14733 9.65578 4.10768 9.59041 4.08071C9.52504 4.05374 9.45497 4.03999 9.38425 4.04023C9.31354 4.04048 9.24357 4.05472 9.17838 4.08214C9.1132 4.10956 9.05409 4.14962 9.00446 4.2L5.72143 7.48304Z" fill="#1E2A5E"/>
</svg>
