<svg width="54" height="60" viewBox="0 0 54 60" fill="none" xmlns="http://www.w3.org/2000/svg">
<path d="M50.858 24.7208C48.7601 24.3412 46.6316 24.1557 44.4997 24.1667C43.2747 24.1667 42.0788 24.1667 40.883 24.4C39.3943 22.4134 37.494 20.7718 35.3122 19.5875C37.1863 17.5407 38.2267 14.8668 38.2288 12.0917C38.2288 9.10577 37.0427 6.24216 34.9313 4.13082C32.82 2.01947 29.9564 0.833328 26.9705 0.833328C23.9846 0.833328 21.121 2.01947 19.0096 4.13082C16.8983 6.24216 15.7122 9.10577 15.7122 12.0917C15.7143 14.8668 16.7547 17.5407 18.6288 19.5875C16.46 20.778 14.5628 22.407 13.058 24.3708C11.9205 24.1667 10.7247 24.1667 9.49966 24.1667C7.36589 24.1749 5.23743 24.38 3.14132 24.7792C2.46186 24.9034 1.84854 25.2647 1.41057 25.7989C0.972595 26.333 0.738391 27.0052 0.749656 27.6958V51.7583C0.74896 52.1868 0.842683 52.6102 1.02416 52.9984C1.20564 53.3865 1.47041 53.7299 1.79966 54.0042C2.12682 54.28 2.51068 54.4805 2.92401 54.5914C3.33734 54.7023 3.77001 54.7209 4.19132 54.6458C5.93669 54.2657 7.71399 54.0509 9.49966 54.0042C15.1495 53.998 20.6768 55.6511 25.3955 58.7583L25.7747 58.9042C26.1615 59.072 26.578 59.1613 26.9997 59.1667C27.278 59.1632 27.5539 59.1139 27.8163 59.0208H28.0205L28.3997 58.875C33.1633 55.688 38.7683 53.9923 44.4997 54.0042C46.2816 54.0125 48.0589 54.1882 49.808 54.5292C50.2293 54.6042 50.662 54.5856 51.0753 54.4747C51.4886 54.3638 51.8725 54.1634 52.1997 53.8875C52.5289 53.6133 52.7937 53.2699 52.9752 52.8817C53.1566 52.4935 53.2504 52.0701 53.2497 51.6417V27.5792C53.2472 26.8985 53.0067 26.2402 52.5699 25.7182C52.1331 25.1962 51.5275 24.8433 50.858 24.7208ZM26.9997 6.66666C28.366 6.76705 29.6437 7.38065 30.5763 8.38424C31.5088 9.38783 32.0271 10.7071 32.0271 12.0771C32.0271 13.4471 31.5088 14.7663 30.5763 15.7699C29.6437 16.7735 28.366 17.3871 26.9997 17.4875C25.6334 17.3871 24.3556 16.7735 23.4231 15.7699C22.4905 14.7663 21.9722 13.4471 21.9722 12.0771C21.9722 10.7071 22.4905 9.38783 23.4231 8.38424C24.3556 7.38065 25.6334 6.76705 26.9997 6.66666ZM24.083 51.3792C19.5116 49.2661 14.5358 48.1714 9.49966 48.1708C8.53716 48.1708 7.57466 48.1708 6.58299 48.3167V30C9.0288 29.7264 11.5 29.7754 13.933 30.1458H14.2538C17.7293 30.7846 21.0598 32.0496 24.083 33.8792V51.3792ZM26.9997 28.8333C25.7027 28.0851 24.3581 27.4226 22.9747 26.85H22.7997C21.8372 26.4708 20.8747 26.0917 19.883 25.8C21.9081 24.1882 24.4116 23.2955 26.9997 23.2625C29.5808 23.2789 32.0837 24.1508 34.1163 25.7417C31.6403 26.5147 29.2545 27.5512 26.9997 28.8333ZM47.4163 48.3167C41.4274 47.7149 35.3864 48.7218 29.9163 51.2333V33.7333C32.945 31.9507 36.2775 30.7442 39.7455 30.175H40.3288C42.6738 29.8098 45.0562 29.751 47.4163 30V48.3167Z" fill="#AD283A" fill-opacity="0.6"/>
</svg>
