<svg width="55" height="55" viewBox="0 0 55 55" fill="none" xmlns="http://www.w3.org/2000/svg">
<path d="M13.9582 38.3333C13.4225 38.3333 12.8989 38.4921 12.4535 38.7897C12.0081 39.0873 11.661 39.5103 11.456 40.0052C11.251 40.5001 11.1974 41.0446 11.3019 41.57C11.4064 42.0954 11.6643 42.578 12.0431 42.9567C12.4219 43.3355 12.9044 43.5934 13.4298 43.6979C13.9552 43.8024 14.4997 43.7488 14.9946 43.5438C15.4895 43.3388 15.9125 42.9917 16.2101 42.5463C16.5077 42.1009 16.6665 41.5773 16.6665 41.0416C16.6665 40.3233 16.3812 39.6345 15.8733 39.1266C15.3653 38.6186 14.6765 38.3333 13.9582 38.3333ZM46.6207 27.5L49.9519 24.1687C51.4735 22.6453 52.3281 20.5802 52.3281 18.4271C52.3281 16.2739 51.4735 14.2088 49.9519 12.6854L42.2873 5.04789C40.7639 3.52635 38.6988 2.67171 36.5457 2.67171C34.3925 2.67171 32.3274 3.52635 30.804 5.04789L27.4998 8.37914C27.4573 6.25254 26.5825 4.22743 25.0634 2.73866C23.5442 1.2499 21.5019 0.416216 19.3748 0.416641H8.5415C6.38662 0.416641 4.31999 1.27267 2.79626 2.7964C1.27253 4.32013 0.416504 6.38676 0.416504 8.54164V46.4583C0.416504 48.6132 1.27253 50.6798 2.79626 52.2035C4.31999 53.7273 6.38662 54.5833 8.5415 54.5833H46.4582C48.6131 54.5833 50.6797 53.7273 52.2034 52.2035C53.7271 50.6798 54.5832 48.6132 54.5832 46.4583V35.625C54.5836 33.498 53.7499 31.4556 52.2612 29.9364C50.7724 28.4173 48.7473 27.5425 46.6207 27.5ZM22.0832 46.4583C22.0832 47.1766 21.7978 47.8655 21.2899 48.3734C20.782 48.8813 20.0931 49.1666 19.3748 49.1666H8.5415C7.82321 49.1666 7.13433 48.8813 6.62642 48.3734C6.11851 47.8655 5.83317 47.1766 5.83317 46.4583V8.54164C5.83317 7.82335 6.11851 7.13447 6.62642 6.62656C7.13433 6.11865 7.82321 5.83331 8.5415 5.83331H19.3748C20.0931 5.83331 20.782 6.11865 21.2899 6.62656C21.7978 7.13447 22.0832 7.82335 22.0832 8.54164V46.4583ZM27.4998 16.0166L34.6498 8.86664C35.1573 8.36221 35.8437 8.07908 36.5592 8.07908C37.2747 8.07908 37.9611 8.36221 38.4686 8.86664L46.1332 16.6666C46.6376 17.1741 46.9207 17.8605 46.9207 18.576C46.9207 19.2915 46.6376 19.9779 46.1332 20.4854L38.3332 28.2854L27.4998 38.9833V16.0166ZM49.1665 46.4583C49.1665 47.1766 48.8812 47.8655 48.3733 48.3734C47.8653 48.8813 47.1765 49.1666 46.4582 49.1666H27.0123C27.2902 48.3639 27.4454 47.5239 27.4728 46.675L41.2311 32.9166H46.4582C47.1765 32.9166 47.8653 33.202 48.3733 33.7099C48.8812 34.2178 49.1665 34.9067 49.1665 35.625V46.4583Z" fill="#1B5DBB" fill-opacity="0.6"/>
</svg>
