<svg width="59" height="63" viewBox="0 0 59 63" fill="none" xmlns="http://www.w3.org/2000/svg">
<path d="M57.5885 48.125L49.0068 33.305C50.7629 30.0798 51.6777 26.464 51.6668 22.7917C51.6668 16.9127 49.3314 11.2745 45.1743 7.11747C41.0173 2.96041 35.3791 0.625 29.5001 0.625C23.6212 0.625 17.983 2.96041 13.8259 7.11747C9.66889 11.2745 7.33348 16.9127 7.33348 22.7917C7.32258 26.464 8.23742 30.0798 9.99348 33.305L1.41182 48.125C1.13334 48.6073 0.987 49.1546 0.98755 49.7115C0.988101 50.2684 1.13552 50.8154 1.41495 51.2971C1.69438 51.7789 2.09592 52.1785 2.57907 52.4555C3.06222 52.7325 3.60988 52.8772 4.16682 52.875H13.2551L17.8785 60.665C18.0343 60.9232 18.2263 61.1578 18.4485 61.3617C19.0355 61.9275 19.8182 62.2451 20.6335 62.2483H21.0768C21.5549 62.1829 22.0117 62.0091 22.4123 61.7402C22.813 61.4713 23.1468 61.1143 23.3885 60.6967L29.5001 50.1833L35.6118 60.7917C35.857 61.2034 36.1924 61.5542 36.5929 61.8175C36.9933 62.0808 37.4483 62.2497 37.9235 62.3117H38.3668C39.1931 62.3166 39.9886 61.9984 40.5835 61.425C40.7965 61.2327 40.9781 61.0084 41.1218 60.76L45.7451 52.97H54.8335C55.3915 52.9722 55.9402 52.827 56.424 52.5489C56.9077 52.2709 57.3095 51.8699 57.5885 51.3867C57.8844 50.8942 58.0407 50.3304 58.0407 49.7558C58.0407 49.1813 57.8844 48.6175 57.5885 48.125ZM20.6018 52.97L17.7835 48.2517C17.506 47.7835 17.1125 47.3948 16.641 47.123C16.1695 46.8513 15.636 46.7056 15.0918 46.7H9.61348L14.1418 38.8467C17.2601 41.8515 21.1902 43.8771 25.4468 44.6733L20.6018 52.97ZM29.5001 38.625C26.3686 38.625 23.3074 37.6964 20.7036 35.9566C18.0998 34.2168 16.0704 31.744 14.8721 28.8508C13.6737 25.9577 13.3601 22.7741 13.971 19.7027C14.582 16.6314 16.09 13.8101 18.3043 11.5958C20.5186 9.38148 23.3399 7.8735 26.4112 7.26257C29.4826 6.65163 32.6661 6.96519 35.5593 8.16357C38.4525 9.36196 40.9253 11.3914 42.6651 13.9951C44.4049 16.5989 45.3335 19.6601 45.3335 22.7917C45.3335 26.9909 43.6653 31.0182 40.696 33.9875C37.7267 36.9569 33.6994 38.625 29.5001 38.625ZM43.9085 46.7C43.3643 46.7056 42.8307 46.8513 42.3593 47.123C41.8878 47.3948 41.4943 47.7835 41.2168 48.2517L38.3985 52.97L33.5851 44.5783C37.8268 43.7658 41.7424 41.742 44.8585 38.7517L49.3868 46.605L43.9085 46.7Z" fill="#5A4F8A" fill-opacity="0.6"/>
</svg>
